<svg xmlns="http://www.w3.org/2000/svg" fill="none" viewBox="0 0 1920 1143" height="1143" width="1920">
<path stroke-miterlimit="10" stroke-width="4" stroke="black" d="M1920 37.8703C1769.98 18.2103 1551.82 -2.07966 1288.61 2.71034C1037.15 7.28034 924.85 31.4203 674.17 37.5703C516.53 41.4103 285.87 38.5803 0 3.28034"></path>
<path stroke-miterlimit="10" stroke-width="4" stroke="black" d="M1920 1103.82C1629.5 1140.3 1395.3 1143.24 1235.82 1139.35C985.14 1133.21 872.84 1109.07 621.38 1104.5C363.96 1099.8 149.64 1119.12 0 1138.37"></path>
<path fill="#feebc0" d="M0 3.28034V1138.37C149.64 1119.12 363.96 1099.8 621.38 1104.5C872.84 1109.07 985.14 1133.21 1235.82 1139.35C1395.29 1143.24 1629.5 1140.3 1920 1103.82V37.8703C1769.98 18.2103 1551.82 -2.07966 1288.61 2.71034C1037.15 7.28034 924.85 31.4203 674.17 37.5703C516.51 41.4103 285.87 38.5803 0 3.28034Z" opacity="1"></path>
</svg>
